#!OML:ASF F:\VICON\USERDATA\INSTALL\rory3\rory3.ASF
:FULLY-SPECIFIED
:DEGREES
337
root 4.87376 17.1419 2.48063 12.0727 -8.17404 -7.6341
lowerback 7.66915 -0.938227 4.28
upperback 1.98178 -0.862774 2.1711
thorax -2.27792 -0.447786 -0.0790467
lowerneck -15.7151 -1.15069 -2.10184
upperneck 38.6266 -1.06014 -0.386938
head 16.5597 -0.866665 -0.00853218
rclavicle 2.0773e-014 1.55052e-014
rhumerus -26.8355 20.1467 -60.9543
rradius 57.4544
rwrist 7.16981
rhand -17.0417 -40.1987
rfingers 7.12502
rthumb 9.19513 -69.9782
lclavicle 2.0773e-014 1.55052e-014
lhumerus -4.72343 -11.375 51.2366
lradius 32.2418
lwrist 18.1734
lhand -21.754 -27.2036
lfingers 7.12502
lthumb 4.64629 2.72543
rfemur -84.4361 -0.162121 21.499
rtibia 107.312
rfoot 47.7447 6.5733
rtoes -6.26455
lfemur -30.0451 -0.609709 -21.6145
ltibia 38.7325
lfoot -17.917 7.204
ltoes 14.8967
338
root 4.87492 17.1394 2.47839 12.045 -8.4079 -7.72341
lowerback 7.88796 -0.90273 4.27627
upperback 1.8795 -0.797056 2.20517
thorax -2.50278 -0.419512 -0.0436544
lowerneck -15.3944 -1.06873 -2.17623
upperneck 38.6114 -0.93871 -0.345316
head 16.4711 -0.823293 0.0472912
rclavicle -2.44505e-014 -1.98785e-015
rhumerus -27.4431 19.9926 -61.2065
rradius 57.1328
rwrist 7.54195
rhand -16.8148 -40.4284
rfingers 7.12502
rthumb 9.41404 -70.1981
lclavicle -2.44505e-014 -1.98785e-015
lhumerus -5.43784 -10.8196 51.653
lradius 31.9802
lwrist 16.9501
lhand -21.3247 -27.1936
lfingers 7.12502
lthumb 5.06081 2.72595
rfemur -84.9219 0.11268 21.7157
rtibia 107.506
rfoot 47.9283 6.41188
rtoes -6.83725
lfemur -30.0414 -0.42729 -21.5531
ltibia 38.8242
lfoot -17.9881 7.22372
ltoes 15.0461
339
root 4.87307 17.1386 2.4759 12.0062 -8.66302 -7.93154
lowerback 8.07864 -0.836696 4.34574
upperback 1.82828 -0.687929 2.26955
thorax -2.65829 -0.368613 -0.0236739
lowerneck -15.2452 -1.04139 -2.21061
upperneck 38.6322 -0.893604 -0.341239
head 16.4446 -0.810249 0.0640251
rclavicle -3.89618e-014 4.77083e-015
rhumerus -27.8178 19.8121 -61.427
rradius 56.618
rwrist 7.69988
rhand -16.8283 -40.7492
rfingers 7.12502
rthumb 9.40102 -70.5196
lclavicle -3.89618e-014 4.77083e-015
lhumerus -6.03911 -10.41 52.0378
lradius 31.6556
lwrist 16.1084
lhand -20.8466 -26.5138
lfingers 7.12502
lthumb 5.52247 3.39422
rfemur -85.3418 0.507807 22.0312
rtibia 107.655
rfoot 48.4638 5.57979
rtoes -6.41258
lfemur -30.058 -0.164999 -21.349
ltibia 38.9656
lfoot -18.0844 7.2009
ltoes 15.0014
340
root 4.87202 17.1327 2.4674 11.9603 -8.85061 -8.04823
lowerback 8.31427 -0.77005 4.36994
upperback 1.75685 -0.578242 2.30617
thorax -2.85969 -0.318097 -0.00696631
lowerneck -15.1107 -1.07662 -2.30701
upperneck 38.6783 -0.95423 -0.256909
head 16.4378 -0.838476 0.107945
rclavicle 1.98785e-015 -1.31198e-014
rhumerus -28.3418 19.533 -61.6073
rradius 56.3438
rwrist 7.82496
rhand -17.2814 -40.7046
rfingers 7.12502
rthumb 8.96382 -70.4941
lclavicle 1.98785e-015 -1.31198e-014
lhumerus -6.62305 -10.3453 52.4193
lradius 31.4143
lwrist 15.8974
lhand -20.1847 -24.4009
lfingers 7.12502
lthumb 6.16148 5.48947
rfemur -85.8358 0.768678 22.2778
rtibia 107.83
rfoot 48.6899 5.69395
rtoes -6.21861
lfemur -30.1179 0.0464832 -21.2385
ltibia 39.1145
lfoot -18.1453 7.147
ltoes 16.2922
341
root 4.87254 17.1233 2.45706 11.9311 -8.9019 -7.94756
lowerback 8.52817 -0.752448 4.25721
upperback 1.66234 -0.547536 2.28406
thorax -3.07507 -0.306048 0.0334744
lowerneck -15.0249 -1.13339 -2.4014
upperneck 38.7414 -1.04668 -0.173608
head 16.4526 -0.879747 0.144988
rclavicle 1.89839e-014 -2.26615e-014
rhumerus -29.0053 19.1671 -61.7682
rradius 56.2337
rwrist 8.0792
rhand -17.5217 -40.4025
rfingers 7.12502
rthumb 8.7319 -70.2019
lclavicle 1.89839e-014 -2.26615e-014
lhumerus -7.18464 -10.1144 52.7686
lradius 31.2158
lwrist 15.3894
lhand -19.5543 -23.0339
lfingers 7.12502
lthumb 6.77012 6.83785
rfemur -86.456 0.75446 22.3596
rtibia 108.039
rfoot 48.6664 6.43574
rtoes -6.9742
lfemur -30.2231 0.1154 -21.3608
ltibia 39.254
lfoot -18.1704 7.12908
ltoes 16.862
342
root 4.87356 17.1185 2.45513 11.902 -8.97171 -7.91849
lowerback 8.62991 -0.749017 4.21926
upperback 1.63464 -0.539592 2.26073
thorax -3.16011 -0.303315 0.0312042
lowerneck -15.0907 -1.17109 -2.40763
upperneck 38.7458 -1.12411 -0.116392
head 16.4729 -0.904804 0.156814
rclavicle 3.19049e-014 -1.66979e-014
rhumerus -29.5759 18.779 -61.9333
rradius 56.0751
rwrist 8.51261
rhand -17.317 -40.4558
rfingers 7.12502
rthumb 8.92947 -70.2468
lclavicle 3.19049e-014 -1.66979e-014
lhumerus -7.73239 -9.83119 53.0352
lradius 30.942
lwrist 14.9287
lhand -20.3413 -25.2802
lfingers 7.12502
lthumb 6.01036 4.61456
rfemur -86.9261 0.762757 22.4991
rtibia 108.214
rfoot 48.7097 6.34308
rtoes -7.07982
lfemur -30.2516 0.228849 -21.4194
ltibia 39.3635
lfoot -18.2369 7.12474
ltoes 16.6161
